<svg xmlns="http://www.w3.org/2000/svg" viewBox="0 0 200 200" width="200" height="200">
  <g transform="translate(100, 100)">
    <!-- Dientes del engranaje -->
    <rect x="-8" y="-75" width="16" height="20" fill="white" rx="2"/>
    <rect x="-8" y="-75" width="16" height="20" fill="white" rx="2" transform="rotate(45)"/>
    <rect x="-8" y="-75" width="16" height="20" fill="white" rx="2" transform="rotate(90)"/>
    <rect x="-8" y="-75" width="16" height="20" fill="white" rx="2" transform="rotate(135)"/>
    <rect x="-8" y="-75" width="16" height="20" fill="white" rx="2" transform="rotate(180)"/>
    <rect x="-8" y="-75" width="16" height="20" fill="white" rx="2" transform="rotate(225)"/>
    <rect x="-8" y="-75" width="16" height="20" fill="white" rx="2" transform="rotate(270)"/>
    <rect x="-8" y="-75" width="16" height="20" fill="white" rx="2" transform="rotate(315)"/>
    
    <!-- Círculo exterior -->
    <circle cx="0" cy="0" r="55" fill="white"/>
    
    <!-- Círculo interior negro -->
    <circle cx="0" cy="0" r="38" fill="#0a0e27"/>
    
    <!-- Letra P -->
    <rect x="-50" y="-40" width="22" height="80" fill="white" rx="5"/>
    <circle cx="-45" cy="-35" r="18" fill="white"/>
    <ellipse cx="-38" cy="-38" rx="16" ry="12" fill="white"/>
  </g>
</svg>
